<svg xmlns="http://www.w3.org/2000/svg" viewBox="0 0 48 48" id="pin">
  <path fill="#010101" d="M24 15.8c-1.3 0-2.7.5-3.7 1.5s-1.5 2.3-1.5 3.7c0 1.4.5 2.7 1.5 3.7 2 2 5.4 2 7.4 0 1-1 1.5-2.3 1.5-3.7 0-1.4-.5-2.7-1.5-3.7-1-.9-2.4-1.5-3.7-1.5z"></path>
  <path fill="#010101" d="M33.9 11.2c-5.5-5.5-14.3-5.5-19.8 0-2.6 2.6-4.1 6.2-4.1 9.9s1.5 7.3 4.1 9.9l9.9 9.9 9.9-9.9c2.6-2.6 4.1-6.2 4.1-9.9s-1.5-7.3-4.1-9.9zm-4.8 15c-1.4 1.4-3.3 2.1-5.1 2.1s-3.7-.7-5.1-2.1c-1.4-1.4-2.1-3.2-2.1-5.1s.8-3.8 2.1-5.1c2.8-2.8 7.4-2.8 10.3 0 1.4 1.4 2.1 3.2 2.1 5.1s-.8 3.8-2.2 5.1z"></path>
</svg>
